<?xml version="1.0" encoding="utf-8"?>
<svg viewBox="0 0 150 150" width="150px" height="150px" xmlns="http://www.w3.org/2000/svg" xmlns:bx="https://boxy-svg.com">
  <rect width="150" height="150" style="" rx="26.735" ry="26.735"/>
  <g transform="matrix(1.199996, 0, 0, 1.193629, 16, 13.319146)" bx:origin="0.499998 0.5">
    <path d="M 49.942 52.994 C 63.494 52.506 77.045 52.017 90.595 51.529 C 88.068 47.352 87.436 43.698 82.606 43.068 C 75.377 42.128 68.148 41.185 60.918 40.242 C 46.895 38.415 32.868 36.588 18.843 34.762 C 20.101 36.792 39.724 53.361 49.942 52.994 Z" fill="#ffffff" data-fill-palette-color="accent"/>
    <path d="M 0 9.786 C 4.391 17.043 26.615 32.858 32.953 33.672 C 50.283 35.903 67.61 38.132 84.939 40.36 C 81.546 34.753 80.759 31.01 74.627 29.401 C 65.723 27.06 56.815 24.718 47.91 22.378 C 31.94 18.182 15.97 13.984 0 9.786 Z" fill="#ffffff" data-fill-palette-color="accent"/>
    <path d="M 63.108 66.207 C 73.521 63.988 83.934 61.768 94.349 59.547 C 92.321 56.201 92.315 54.188 88.522 54.358 C 82.364 54.631 76.208 54.907 70.051 55.18 C 58.708 55.686 47.365 56.194 36.023 56.698 C 37.298 58.064 54.94 67.947 63.108 66.207 Z" fill="#ffffff" data-fill-palette-color="accent"/>
    <path d="M 87.682 90.213 C 93.407 86.494 94.944 82.492 98.201 76.406 C 101.852 69.582 99.458 68.562 95.38 61.81 C 94.963 61.122 89.538 62.042 88.927 62.714 C 88.182 63.532 88.679 68.169 88.633 69.21 C 88.315 76.211 87.998 83.213 87.682 90.213 Z" fill="#ffffff" data-fill-palette-color="accent"/>
    <path d="M 86.35 63.447 C 82.555 64.256 77.746 63.638 76.778 67.676 C 75.405 73.412 74.032 79.151 72.658 84.887 C 81.904 82.678 86.028 71.582 86.35 63.447 Z" fill="#ffffff" data-fill-palette-color="accent"/>
    <path d="M 74.666 66.121 C 65.518 68.074 65.71 70.732 61.787 79.301 C 68.007 78.711 73.811 71.941 74.666 66.121 Z" fill="#ffffff" data-fill-palette-color="accent"/>
  </g>
</svg>