<svg xmlns="http://www.w3.org/2000/svg" version="1.1" xmlns:xlink="http://www.w3.org/1999/xlink" xmlns:svgjs="http://svgjs.dev/svgjs" width="1000" height="1000" viewBox="0 0 1000 1000"><rect width="1000" height="1000" fill="#000000"></rect><g transform="matrix(0.7,0,0,0.7,150.0446099553766,143.2890700337668)"><svg viewBox="0 0 242 247" data-background-color="#282634" preserveAspectRatio="xMidYMid meet" height="1020" width="1000" xmlns="http://www.w3.org/2000/svg" xmlns:xlink="http://www.w3.org/1999/xlink"><g id="tight-bounds" transform="matrix(1,0,0,1,-0.015422298858766226,-0.10000006766117053)"><svg viewBox="0 0 242.03084459771756 247.2" height="247.2" width="242.03084459771756"><g><svg viewBox="0 0 397.4975999999999 405.9871248365946" height="247.2" width="242.03084459771756"><g><rect width="397.4975999999999" height="9.899579295994632" x="0" y="209.6349752358913" fill="#ffffff" opacity="1" stroke-width="0" stroke="transparent" fill-opacity="1" class="rect-o-0" data-fill-palette-color="secondary" rx="1%" id="o-0" data-palette-color="#dcdcdc"></rect></g><g transform="matrix(1,0,0,1,0.9887999999999693,245.4496835789923)"><svg viewBox="0 0 395.52 160.5374412576023" height="160.5374412576023" width="395.52"><g id="textblocktransform"><svg viewBox="0 0 395.52 160.5374412576023" height="160.5374412576023" width="395.52" id="textblock"><g><svg viewBox="0 0 395.52 109.7745177277926" height="109.7745177277926" width="395.52"><g transform="matrix(1,0,0,1,0,0)"><svg width="395.52" viewBox="1.5 -35.70000076293945 131.13999938964844 36.400001525878906" height="109.7745177277926" data-palette-color="#ff4057"><path d="M16.35 0.7Q12.05 0.7 8.68-1.55 5.3-3.8 3.4-7.93 1.5-12.05 1.5-17.5L1.5-17.5Q1.5-22.95 3.4-27.08 5.3-31.2 8.68-33.45 12.05-35.7 16.35-35.7L16.35-35.7Q20.65-35.7 24-33.45 27.35-31.2 29.25-27.08 31.15-22.95 31.15-17.5L31.15-17.5Q31.15-12.05 29.25-7.93 27.35-3.8 24-1.55 20.65 0.7 16.35 0.7L16.35 0.7ZM16.35-4.55Q20.8-4.55 23.2-8.15 25.6-11.75 25.6-17.5L25.6-17.5Q25.6-23.25 23.2-26.85 20.8-30.45 16.35-30.45L16.35-30.45Q11.9-30.45 9.5-26.85 7.1-23.25 7.1-17.5L7.1-17.5Q7.1-11.75 9.5-8.15 11.9-4.55 16.35-4.55L16.35-4.55ZM44.45 0.7Q41.9 0.7 39.22 0.13 36.55-0.45 34.75-1.35L34.75-1.35 35.4-7.15Q40.15-4.35 44.9-4.35L44.9-4.35Q47.7-4.35 49.27-5.48 50.85-6.6 50.85-8.75L50.85-8.75Q50.85-11.05 49.22-12.5 47.6-13.95 43.5-15.75L43.5-15.75Q40.35-17.15 38.45-18.45 36.55-19.75 35.5-21.6 34.45-23.45 34.45-26.1L34.45-26.1Q34.45-28.95 35.9-31.13 37.35-33.3 39.97-34.5 42.6-35.7 46.1-35.7L46.1-35.7Q50.85-35.7 54.95-33.75L54.95-33.75 54.4-28.2Q49.95-30.65 45.7-30.65L45.7-30.65Q43.05-30.65 41.6-29.6 40.15-28.55 40.15-26.35L40.15-26.35Q40.15-24.8 41-23.75 41.85-22.7 43.25-21.93 44.65-21.15 47.75-19.7L47.75-19.7Q52.3-17.55 54.4-15.18 56.5-12.8 56.5-9.15L56.5-9.15Q56.5-4.6 53.3-1.95 50.1 0.7 44.45 0.7L44.45 0.7ZM61.15 0L61.15-35 66.4-35 66.4 0 61.15 0ZM73.19 0L73.19-35 82.69-35Q88.19-35 91.29-32.3 94.39-29.6 94.39-24.25L94.39-24.25Q94.39-21.15 93.02-18.7 91.64-16.25 89.19-14.9L89.19-14.9 96.04 0 89.99 0 83.99-13.4Q83.69-13.35 82.84-13.35L82.84-13.35 78.44-13.35 78.44 0 73.19 0ZM78.44-18L82.24-18Q85.64-18 87.29-19.53 88.94-21.05 88.94-24.15L88.94-24.15Q88.94-27.3 87.29-28.83 85.64-30.35 82.24-30.35L82.24-30.35 78.44-30.35 78.44-18ZM100.14 0L100.14-35 105.39-35 105.39 0 100.14 0ZM120.59 0.7Q118.04 0.7 115.36 0.13 112.69-0.45 110.89-1.35L110.89-1.35 111.54-7.15Q116.29-4.35 121.04-4.35L121.04-4.35Q123.84-4.35 125.41-5.48 126.99-6.6 126.99-8.75L126.99-8.75Q126.99-11.05 125.36-12.5 123.74-13.95 119.64-15.75L119.64-15.75Q116.49-17.15 114.59-18.45 112.69-19.75 111.64-21.6 110.59-23.45 110.59-26.1L110.59-26.1Q110.59-28.95 112.04-31.13 113.49-33.3 116.11-34.5 118.74-35.7 122.24-35.7L122.24-35.7Q126.99-35.7 131.09-33.75L131.09-33.75 130.54-28.2Q126.09-30.65 121.84-30.65L121.84-30.65Q119.19-30.65 117.74-29.6 116.29-28.55 116.29-26.35L116.29-26.35Q116.29-24.8 117.14-23.75 117.99-22.7 119.39-21.93 120.79-21.15 123.89-19.7L123.89-19.7Q128.44-17.55 130.54-15.18 132.64-12.8 132.64-9.15L132.64-9.15Q132.64-4.6 129.44-1.95 126.24 0.7 120.59 0.7L120.59 0.7Z" opacity="1" transform="matrix(1,0,0,1,0,0)" fill="#ffffff" class="wordmark-text-0" data-fill-palette-color="primary" id="text-0"></path></svg></g></svg></g><g transform="matrix(1,0,0,1,75.54432,135.68964677489896)"><svg viewBox="0 0 244.43135999999998 24.847794482703332" height="24.847794482703332" width="244.43135999999998"><g transform="matrix(1,0,0,1,0,0)"><svg width="244.43135999999998" viewBox="0.34375 -40.45000076293945 467.71624755859375 47.54999923706055" height="24.847794482703332" data-palette-color="#dcdcdc"><path d="M28.15-1.2L17.15-34.8 6.2-1.2 6.2-1.25Q5.9-0.5 5.38-0.03 4.85 0.45 4.1 0.45L4.1 0.45Q3.7 0.45 3.33 0.38 2.95 0.3 2.55 0.2L2.55 0.2 2.6 0.2Q-0.25-0.7 0.5-3L0.5-3 11.9-37.65Q12.15-38.45 12.78-39 13.4-39.55 14.25-39.65L14.25-39.65Q15.1-39.8 15.9-39.88 16.7-39.95 17.15-39.95L17.15-39.95Q17.6-39.95 18.4-39.88 19.2-39.8 20.05-39.7L20.05-39.7Q20.75-39.6 21.43-38.95 22.1-38.3 22.45-37.65L22.45-37.65Q25.25-29.05 28.13-20.33 31-11.6 33.8-3L33.8-3Q34.5-0.7 31.7 0.2L31.7 0.2Q31.3 0.3 30.98 0.38 30.65 0.45 30.25 0.45L30.25 0.45Q29.55 0.45 28.98-0.03 28.4-0.5 28.15-1.25L28.15-1.25 28.15-1.2ZM20.9-12L20.9-12Q20.9-10.4 19.78-9.28 18.65-8.15 17.05-8.15L17.05-8.15Q15.45-8.15 14.35-9.28 13.25-10.4 13.25-12L13.25-12Q13.25-13.6 14.35-14.73 15.45-15.85 17.05-15.85L17.05-15.85Q18.65-15.85 19.78-14.73 20.9-13.6 20.9-12ZM61.9-10.3L61.9-7.95Q61.9-3.85 59.2-1.9L59.2-1.9Q56.55 0 53.9 0L53.9 0 45.5 0Q42.85 0 40.35-1.9L40.35-1.9Q39.15-2.9 38.5-4.42 37.85-5.95 37.85-7.95L37.85-7.95 37.85-22.2Q37.85-26.25 40.35-28.2L40.35-28.2Q41.6-29.1 42.92-29.63 44.25-30.15 45.5-30.15L45.5-30.15 53.9-30.15Q55.1-30.15 56.55-29.68 58-29.2 59.25-28.4L59.25-28.4Q60.45-27.55 61.17-26.05 61.9-24.55 61.9-22.5L61.9-22.5 61.9-20Q61.9-17.6 59.15-17.6L59.15-17.6Q56.4-17.6 56.4-20L56.4-20 56.4-22.15Q56.4-23.4 55.62-24.43 54.85-25.45 53-25.45L53-25.45 46.75-25.45Q44.9-25.45 44.12-24.43 43.35-23.4 43.35-22.15L43.35-22.15 43.35-8Q43.35-6.8 44.12-5.75 44.9-4.7 46.75-4.7L46.75-4.7 53-4.7Q54.85-4.7 55.62-5.75 56.4-6.8 56.4-8L56.4-8 56.4-10.3Q56.4-12.65 59.15-12.65L59.15-12.65Q61.9-12.65 61.9-10.3L61.9-10.3ZM92.2-10.3L92.2-7.95Q92.2-3.85 89.5-1.9L89.5-1.9Q86.85 0 84.2 0L84.2 0 75.8 0Q73.15 0 70.65-1.9L70.65-1.9Q69.45-2.9 68.8-4.42 68.15-5.95 68.15-7.95L68.15-7.95 68.15-22.2Q68.15-26.25 70.65-28.2L70.65-28.2Q71.9-29.1 73.22-29.63 74.55-30.15 75.8-30.15L75.8-30.15 84.2-30.15Q85.4-30.15 86.85-29.68 88.3-29.2 89.55-28.4L89.55-28.4Q90.75-27.55 91.47-26.05 92.2-24.55 92.2-22.5L92.2-22.5 92.2-20Q92.2-17.6 89.45-17.6L89.45-17.6Q86.7-17.6 86.7-20L86.7-20 86.7-22.15Q86.7-23.4 85.92-24.43 85.15-25.45 83.3-25.45L83.3-25.45 77.05-25.45Q75.2-25.45 74.42-24.43 73.65-23.4 73.65-22.15L73.65-22.15 73.65-8Q73.65-6.8 74.42-5.75 75.2-4.7 77.05-4.7L77.05-4.7 83.3-4.7Q85.15-4.7 85.92-5.75 86.7-6.8 86.7-8L86.7-8 86.7-10.3Q86.7-12.65 89.45-12.65L89.45-12.65Q92.2-12.65 92.2-10.3L92.2-10.3ZM106.44-30.1L114.44-30.1Q115.74-30.1 117.12-29.55 118.49-29 119.79-28.15L119.79-28.15 119.74-28.15Q121.04-27.2 121.74-25.68 122.44-24.15 122.44-22.15L122.44-22.15 122.44-7.95Q122.44-3.85 119.74-1.9L119.74-1.9Q117.09 0 114.44 0L114.44 0 106.44 0Q105.14 0 103.79-0.45 102.44-0.9 101.14-1.9L101.14-1.9Q98.44-3.8 98.44-7.95L98.44-7.95 98.44-22.15Q98.44-24.15 99.14-25.68 99.84-27.2 101.14-28.15L101.14-28.15 101.09-28.15Q102.34-29 103.74-29.55 105.14-30.1 106.44-30.1L106.44-30.1ZM107.34-4.7L113.54-4.7Q115.39-4.7 116.17-5.75 116.94-6.8 116.94-8L116.94-8 116.94-22.1Q116.94-23.35 116.17-24.38 115.39-25.4 113.54-25.4L113.54-25.4 107.34-25.4Q105.49-25.4 104.72-24.38 103.94-23.35 103.94-22.1L103.94-22.1 103.94-8Q103.94-6.8 104.72-5.75 105.49-4.7 107.34-4.7L107.34-4.7ZM152.79-28L152.79-7.95Q152.79-5.95 152.09-4.4 151.39-2.85 150.09-1.9L150.09-1.9 150.14-1.9Q148.89-1.05 147.49-0.53 146.09 0 144.79 0L144.79 0 136.74 0Q135.49 0 134.06-0.53 132.64-1.05 131.39-1.9L131.39-1.9 131.44-1.9Q130.14-2.85 129.44-4.4 128.74-5.95 128.74-7.95L128.74-7.95 128.74-28Q128.74-30.4 131.49-30.4L131.49-30.4Q134.24-30.4 134.24-28L134.24-28 134.24-8.35Q134.24-6.95 134.94-5.9L134.94-5.9Q135.59-4.7 137.64-4.7L137.64-4.7 143.89-4.7Q145.89-4.7 146.54-5.9L146.54-5.9 146.49-5.85Q147.29-7.05 147.29-8.35L147.29-8.35 147.29-28Q147.29-30.4 150.04-30.4L150.04-30.4Q152.79-30.4 152.79-28L152.79-28ZM164.54-21.75L164.54-2.1Q164.54 0.3 161.79 0.3L161.79 0.3Q159.04 0.3 159.04-2.1L159.04-2.1 159.04-22.2Q159.04-24.25 159.69-25.75 160.34-27.25 161.74-28.2L161.74-28.2Q164.39-30.1 167.04-30.1L167.04-30.1 175.09-30.1Q177.64-30.1 180.39-28.2L180.39-28.2Q183.09-26.3 183.09-22.2L183.09-22.2 183.09-2.1Q183.09 0.3 180.34 0.3L180.34 0.3Q177.59 0.3 177.59-2.1L177.59-2.1 177.59-21.75Q177.59-23.05 176.79-24.25L176.79-24.25 176.84-24.2Q176.19-25.4 174.19-25.4L174.19-25.4 167.94-25.4Q165.89-25.4 165.24-24.2L165.24-24.2Q164.54-23.15 164.54-21.75L164.54-21.75ZM200.24-25.4L196.09-25.4 196.09-7.2Q196.09-5.9 196.64-5.2 197.19-4.5 198.99-4.5L198.99-4.5 200.29-4.5Q202.24-4.5 202.14-2.2L202.14-2.2Q202.14 0.15 200.29 0.15L200.29 0.15 198.64 0.15Q197.04 0.15 195.64-0.28 194.24-0.7 192.94-1.5L192.94-1.5 192.94-1.45Q190.49-3.05 190.49-7.15L190.49-7.15 190.49-25.4 188.54-25.4Q186.74-25.4 186.64-27.75L186.64-27.75Q186.64-30.1 188.54-30.1L188.54-30.1 190.49-30.1 190.49-35.45Q190.49-37.85 193.34-37.85L193.34-37.85Q196.09-37.85 196.09-35.45L196.09-35.45 196.09-30.1 200.24-30.1Q202.19-30.1 202.09-27.75L202.09-27.75Q202.09-25.4 200.24-25.4L200.24-25.4ZM212.13-27.9L212.13-2.1Q212.13 0.3 209.38 0.3L209.38 0.3Q206.58 0.3 206.58-2.1L206.58-2.1 206.58-27.9Q206.58-30.3 209.38-30.3L209.38-30.3Q212.13-30.3 212.13-27.9L212.13-27.9ZM213.18-36.6L213.18-36.6Q213.18-35 212.08-33.9 210.98-32.8 209.38-32.8L209.38-32.8Q207.78-32.8 206.66-33.9 205.53-35 205.53-36.6L205.53-36.6Q205.53-38.25 206.66-39.35 207.78-40.45 209.38-40.45L209.38-40.45Q210.98-40.45 212.08-39.35 213.18-38.25 213.18-36.6ZM224.58-21.75L224.58-2.1Q224.58 0.3 221.83 0.3L221.83 0.3Q219.08 0.3 219.08-2.1L219.08-2.1 219.08-22.2Q219.08-24.25 219.73-25.75 220.38-27.25 221.78-28.2L221.78-28.2Q224.43-30.1 227.08-30.1L227.08-30.1 235.13-30.1Q237.68-30.1 240.43-28.2L240.43-28.2Q243.13-26.3 243.13-22.2L243.13-22.2 243.13-2.1Q243.13 0.3 240.38 0.3L240.38 0.3Q237.63 0.3 237.63-2.1L237.63-2.1 237.63-21.75Q237.63-23.05 236.83-24.25L236.83-24.25 236.88-24.2Q236.23-25.4 234.23-25.4L234.23-25.4 227.98-25.4Q225.93-25.4 225.28-24.2L225.28-24.2Q224.58-23.15 224.58-21.75L224.58-21.75ZM263.68-3.5L257.63-3.5Q256.33-3.5 254.95-3.95 253.58-4.4 252.28-5.25L252.28-5.25Q249.58-7 249.58-11.15L249.58-11.15 249.58-22.45Q249.58-24.55 250.3-26.05 251.03-27.55 252.28-28.4L252.28-28.4Q253.58-29.2 254.93-29.65 256.28-30.1 257.58-30.1L257.58-30.1 265.98-30.1Q267.23-30.1 268.58-29.55 269.93-29 271.08-28.15L271.08-28.15Q272.23-27.2 272.93-25.65 273.63-24.1 273.63-22.15L273.63-22.15 273.63-0.95Q273.63 1.15 272.95 2.63 272.28 4.1 271.08 5.1L271.08 5.1Q269.93 6.05 268.6 6.58 267.28 7.1 265.98 7.1L265.98 7.1 257.58 7.1Q254.93 7.1 252.23 5.55L252.23 5.55Q250.83 4.75 250.2 3.5 249.58 2.25 249.58 0.6L249.58 0.6 249.58 0Q249.58-1 250.23-1.6 250.88-2.2 252.28-2.2L252.28-2.2Q255.08-1.9 255.08 0L255.08 0 255.08 0.55Q255.08 1.1 255.85 1.75 256.63 2.4 258.48 2.4L258.48 2.4 264.73 2.4Q266.58 2.4 267.35 1.35 268.13 0.3 268.13-1L268.13-1 268.13-22.1Q268.13-23.35 267.35-24.38 266.58-25.4 264.73-25.4L264.73-25.4 258.48-25.4Q256.63-25.4 255.85-24.38 255.08-23.35 255.08-22.1L255.08-22.1 255.08-11.55Q255.08-10.3 255.85-9.22 256.63-8.15 258.48-8.15L258.48-8.15 263.68-8.15Q265.48-8.15 265.48-5.85L265.48-5.85Q265.48-4.8 265.05-4.15 264.63-3.5 263.68-3.5L263.68-3.5ZM302.27-25.4L302.27-2.1Q302.27 0.3 299.47 0.3L299.47 0.3Q296.72 0.3 296.72-2.1L296.72-2.1 296.72-25.4 294.32-25.4Q292.52-25.4 292.42-27.75L292.42-27.75Q292.42-30.1 294.32-30.1L294.32-30.1 296.72-30.1 296.72-32.5Q296.72-34.55 297.3-35.98 297.87-37.4 299.17-38.15L299.17-38.15 299.17-38.1Q300.47-38.9 301.85-39.35 303.22-39.8 304.77-39.8L304.77-39.8 305.97-39.8Q307.82-39.8 307.82-37.45L307.82-37.45Q307.92-35.1 305.97-35.1L305.97-35.1 305.17-35.1Q304.22-35.1 303.65-34.93 303.07-34.75 302.77-34.4 302.47-34.05 302.37-33.55 302.27-33.05 302.27-32.45L302.27-32.45 302.27-30.1 306.02-30.1Q307.97-30.1 307.87-27.75L307.87-27.75Q307.87-25.4 306.02-25.4L306.02-25.4 302.27-25.4ZM320.12-30.1L328.12-30.1Q329.42-30.1 330.8-29.55 332.17-29 333.47-28.15L333.47-28.15 333.42-28.15Q334.72-27.2 335.42-25.68 336.12-24.15 336.12-22.15L336.12-22.15 336.12-7.95Q336.12-3.85 333.42-1.9L333.42-1.9Q330.77 0 328.12 0L328.12 0 320.12 0Q318.82 0 317.47-0.45 316.12-0.9 314.82-1.9L314.82-1.9Q312.12-3.8 312.12-7.95L312.12-7.95 312.12-22.15Q312.12-24.15 312.82-25.68 313.52-27.2 314.82-28.15L314.82-28.15 314.77-28.15Q316.02-29 317.42-29.55 318.82-30.1 320.12-30.1L320.12-30.1ZM321.02-4.7L327.22-4.7Q329.07-4.7 329.85-5.75 330.62-6.8 330.62-8L330.62-8 330.62-22.1Q330.62-23.35 329.85-24.38 329.07-25.4 327.22-25.4L327.22-25.4 321.02-25.4Q319.17-25.4 318.4-24.38 317.62-23.35 317.62-22.1L317.62-22.1 317.62-8Q317.62-6.8 318.4-5.75 319.17-4.7 321.02-4.7L321.02-4.7ZM347.82-22.75L347.82-2.1Q347.82 0.3 345.07 0.3L345.07 0.3Q342.22 0.3 342.22-2.1L342.22-2.1 342.22-22.8Q342.22-26.9 344.67-28.5L344.67-28.5Q347.12-30.1 350.32-30.1L350.32-30.1 356.02-30.1Q357.87-30.1 357.87-27.75L357.87-27.75Q357.97-25.4 356.02-25.4L356.02-25.4 350.72-25.4Q348.92-25.4 348.37-24.7 347.82-24 347.82-22.75L347.82-22.75ZM384.06-25.4L384.06-2.1Q384.06 0.3 381.26 0.3L381.26 0.3Q378.51 0.3 378.51-2.1L378.51-2.1 378.51-25.4 376.11-25.4Q374.31-25.4 374.21-27.75L374.21-27.75Q374.21-30.1 376.11-30.1L376.11-30.1 378.51-30.1 378.51-32.5Q378.51-34.55 379.09-35.98 379.66-37.4 380.96-38.15L380.96-38.15 380.96-38.1Q382.26-38.9 383.64-39.35 385.01-39.8 386.56-39.8L386.56-39.8 387.76-39.8Q389.61-39.8 389.61-37.45L389.61-37.45Q389.71-35.1 387.76-35.1L387.76-35.1 386.96-35.1Q386.01-35.1 385.44-34.93 384.86-34.75 384.56-34.4 384.26-34.05 384.16-33.55 384.06-33.05 384.06-32.45L384.06-32.45 384.06-30.1 387.81-30.1Q389.76-30.1 389.66-27.75L389.66-27.75Q389.66-25.4 387.81-25.4L387.81-25.4 384.06-25.4ZM399.31-22.75L399.31-2.1Q399.31 0.3 396.56 0.3L396.56 0.3Q393.71 0.3 393.71-2.1L393.71-2.1 393.71-22.8Q393.71-26.9 396.16-28.5L396.16-28.5Q398.61-30.1 401.81-30.1L401.81-30.1 407.51-30.1Q409.36-30.1 409.36-27.75L409.36-27.75Q409.46-25.4 407.51-25.4L407.51-25.4 402.21-25.4Q400.41-25.4 399.86-24.7 399.31-24 399.31-22.75L399.31-22.75ZM419.11-22.15L419.11-8Q419.11-6.8 419.88-5.75 420.66-4.7 422.51-4.7L422.51-4.7 428.76-4.7Q430.61-4.7 431.38-5.63 432.16-6.55 432.16-7.75L432.16-7.75 432.16-8.3Q432.16-10.65 434.91-10.65L434.91-10.65Q437.66-10.65 437.66-8.3L437.66-8.3 437.66-7.7Q437.66-5.6 436.98-4.25 436.31-2.9 434.96-1.9L434.96-1.9Q432.31 0 429.66 0L429.66 0 421.26 0Q418.61 0 416.11-1.9L416.11-1.9Q414.91-2.9 414.26-4.42 413.61-5.95 413.61-7.95L413.61-7.95 413.61-22.2Q413.61-26.25 416.11-28.2L416.11-28.2Q417.36-29.1 418.68-29.63 420.01-30.15 421.26-30.15L421.26-30.15 429.66-30.15Q430.86-30.15 432.31-29.68 433.76-29.2 435.01-28.4L435.01-28.4Q436.21-27.55 436.93-26.05 437.66-24.55 437.66-22.5L437.66-22.5 437.66-15.75Q437.66-14.6 436.98-13.7 436.31-12.8 434.51-12.8L434.51-12.8 423.71-12.8Q421.91-12.8 421.81-15.15L421.81-15.15Q421.81-17.5 423.71-17.5L423.71-17.5 432.21-17.5 432.16-22.15Q432.16-23.4 431.38-24.43 430.61-25.45 428.76-25.45L428.76-25.45 422.51-25.45Q420.66-25.45 419.88-24.43 419.11-23.4 419.11-22.15L419.11-22.15ZM449.51-22.15L449.51-8Q449.51-6.8 450.28-5.75 451.06-4.7 452.91-4.7L452.91-4.7 459.16-4.7Q461.01-4.7 461.78-5.63 462.56-6.55 462.56-7.75L462.56-7.75 462.56-8.3Q462.56-10.65 465.31-10.65L465.31-10.65Q468.06-10.65 468.06-8.3L468.06-8.3 468.06-7.7Q468.06-5.6 467.38-4.25 466.71-2.9 465.36-1.9L465.36-1.9Q462.71 0 460.06 0L460.06 0 451.66 0Q449.01 0 446.51-1.9L446.51-1.9Q445.31-2.9 444.66-4.42 444.01-5.95 444.01-7.95L444.01-7.95 444.01-22.2Q444.01-26.25 446.51-28.2L446.51-28.2Q447.76-29.1 449.08-29.63 450.41-30.15 451.66-30.15L451.66-30.15 460.06-30.15Q461.26-30.15 462.71-29.68 464.16-29.2 465.41-28.4L465.41-28.4Q466.61-27.55 467.33-26.05 468.06-24.55 468.06-22.5L468.06-22.5 468.06-15.75Q468.06-14.6 467.38-13.7 466.71-12.8 464.91-12.8L464.91-12.8 454.11-12.8Q452.31-12.8 452.21-15.15L452.21-15.15Q452.21-17.5 454.11-17.5L454.11-17.5 462.61-17.5 462.56-22.15Q462.56-23.4 461.78-24.43 461.01-25.45 459.16-25.45L459.16-25.45 452.91-25.45Q451.06-25.45 450.28-24.43 449.51-23.4 449.51-22.15L449.51-22.15Z" opacity="1" transform="matrix(1,0,0,1,0,0)" fill="#ffffff" class="slogan-text-1" data-fill-palette-color="secondary" id="text-1"></path></svg></g></svg></g></svg></g></svg></g><g transform="matrix(1,0,0,1,76.53311999999995,0)"><svg viewBox="0 0 244.43136 183.7198461887849" height="183.7198461887849" width="244.43136"><g><svg xmlns="http://www.w3.org/2000/svg" xmlns:xlink="http://www.w3.org/1999/xlink" version="1.1" x="8" y="0" viewBox="0 9.78600025177002 100.0003433227539 80.42699432373047" enable-background="new 0 0 100 100" xml:space="preserve" width="228.43136" height="183.7198461887849" class="icon-icon-0" data-fill-palette-color="accent" id="icon-0"><path d="M49.942 52.994c13.552-0.488 27.103-0.977 40.653-1.465-2.527-4.177-3.159-7.831-7.989-8.461-7.229-0.94-14.458-1.883-21.688-2.826-14.023-1.827-28.05-3.654-42.075-5.48C20.101 36.792 39.724 53.361 49.942 52.994z" fill="#ffffff" data-fill-palette-color="accent"></path><path d="M0 9.786c4.391 7.257 26.615 23.072 32.953 23.886 17.33 2.231 34.657 4.46 51.986 6.688-3.393-5.607-4.18-9.35-10.312-10.959-8.904-2.341-17.812-4.683-26.717-7.023C31.94 18.182 15.97 13.984 0 9.786z" fill="#ffffff" data-fill-palette-color="accent"></path><path d="M63.108 66.207c10.413-2.219 20.826-4.439 31.241-6.66-2.028-3.346-2.034-5.359-5.827-5.189-6.158 0.273-12.314 0.549-18.471 0.822-11.343 0.506-22.686 1.014-34.028 1.518C37.298 58.064 54.94 67.947 63.108 66.207z" fill="#ffffff" data-fill-palette-color="accent"></path><path d="M87.682 90.213c5.725-3.719 7.262-7.721 10.519-13.807 3.651-6.824 1.257-7.844-2.821-14.596-0.417-0.688-5.842 0.232-6.453 0.904-0.745 0.818-0.248 5.455-0.294 6.496C88.315 76.211 87.998 83.213 87.682 90.213z" fill="#ffffff" data-fill-palette-color="accent"></path><path d="M86.35 63.447c-3.795 0.809-8.604 0.191-9.572 4.229-1.373 5.736-2.746 11.475-4.12 17.211C81.904 82.678 86.028 71.582 86.35 63.447z" fill="#ffffff" data-fill-palette-color="accent"></path><path d="M74.666 66.121c-9.148 1.953-8.956 4.611-12.879 13.18C68.007 78.711 73.811 71.941 74.666 66.121z" fill="#ffffff" data-fill-palette-color="accent"></path></svg></g></svg></g><g></g></svg></g><defs></defs></svg><rect width="242.03084459771756" height="247.2" fill="none" stroke="none" visibility="hidden"></rect></g></svg></g></svg>